<?xml version="1.0" standalone="no"?>
<!DOCTYPE svg PUBLIC "-//W3C//DTD SVG 20010904//EN"
 "http://www.w3.org/TR/2001/REC-SVG-20010904/DTD/svg10.dtd">
<svg version="1.0" xmlns="http://www.w3.org/2000/svg"
 width="128.000000pt" height="128.000000pt" viewBox="0 0 128.000000 128.000000"
 preserveAspectRatio="xMidYMid meet">
<metadata>
Created by potrace 1.11, written by Peter Selinger 2001-2013
</metadata>
<g transform="translate(0.000000,128.000000) scale(0.100000,-0.100000)"
fill="#000000" stroke="none">
<path d="M11 956 c-8 -9 -11 -103 -9 -322 l3 -308 25 -13 c36 -18 1184 -18
1220 0 l25 13 3 308 c2 219 -1 313 -9 322 -17 21 -1241 21 -1258 0z m1209
-316 l0 -290 -580 0 -580 0 0 290 0 290 580 0 580 0 0 -290z"/>
<path d="M140 800 c0 -6 29 -54 65 -108 l65 -97 0 -77 c0 -77 0 -78 25 -78 24
0 25 2 25 75 l0 76 70 104 c39 57 70 107 70 110 0 3 -12 5 -27 5 -24 0 -35
-12 -78 -80 -27 -43 -52 -79 -55 -80 -3 0 -28 36 -55 80 -43 69 -54 80 -77 80
-16 0 -28 -5 -28 -10z"/>
<path d="M470 785 c0 -24 3 -25 60 -25 l60 0 0 -160 0 -160 25 0 25 0 0 160 0
160 60 0 c57 0 60 1 60 25 l0 25 -145 0 -145 0 0 -25z"/>
<path d="M870 788 c-62 -43 -75 -70 -75 -161 0 -69 4 -88 24 -121 62 -100 219
-98 271 5 18 34 19 43 8 50 -21 14 -48 10 -48 -7 0 -8 -13 -29 -29 -45 -90
-89 -209 31 -169 170 17 56 55 86 109 86 32 0 46 -6 64 -27 13 -15 24 -31 26
-37 6 -16 49 -1 49 16 0 9 -17 33 -39 54 -36 37 -42 39 -98 39 -46 0 -68 -5
-93 -22z"/>
</g>
</svg>
